<?xml version="1.0" encoding="iso-8859-1"?>
<!-- Generator: Adobe Illustrator 19.0.0, SVG Export Plug-In . SVG Version: 6.00 Build 0)  -->
<svg version="1.1" id="Layer_1" xmlns="http://www.w3.org/2000/svg" xmlns:xlink="http://www.w3.org/1999/xlink" x="0px" y="0px"
	 viewBox="0 0 512 512" style="enable-background:new 0 0 512 512;transform: rotate(-42deg);" xml:space="preserve">
<g>
	<g>
		<path fill="white" d="M497.152,14.618c-19.072-19.166-52.523-19.174-71.646-0.009l-53.572,53.564c-16.649,16.657-19.089,42.052-7.663,61.474
			l-55.945,55.945c-19.285-10.914-45.338-8.516-61.372,7.561l-53.572,53.564c-16.657,16.666-19.089,42.052-7.654,61.474
			l-55.945,55.945c-19.311-10.914-45.312-8.499-61.372,7.561l-53.564,53.564C5.274,434.825,0,447.548,0,461.099
			c0,13.534,5.274,26.266,14.848,35.823c9.549,9.574,22.272,14.839,35.823,14.839c13.551,0,26.274-5.265,35.823-14.839
			l53.572-53.564c16.657-16.666,19.089-42.052,7.654-61.474l55.834-55.834c7.714,4.565,16.452,7.177,25.66,7.177
			c13.525,0,26.249-5.274,35.823-14.848l53.547-53.564c9.574-9.566,14.848-22.289,14.848-35.823c0-9.199-2.611-17.937-7.168-25.651
			l55.834-55.834c7.714,4.557,16.452,7.168,25.66,7.168c13.525,0,26.249-5.265,35.823-14.839l53.547-53.564
			C506.726,76.706,512,63.983,512,50.449C512,36.898,506.726,24.166,497.152,14.618z M121.975,425.259l-53.572,53.564
			c-9.446,9.472-26.001,9.472-35.447,0c-4.753-4.736-7.356-11.042-7.356-17.724c0-6.699,2.603-12.996,7.347-17.741l53.547-53.564
			c4.753-4.736,11.051-7.347,17.749-7.347c2.099,0,4.036,0.691,6.016,1.195l-6.033,6.033c-4.932,4.932-4.932,12.919,0,17.852
			s12.919,4.932,17.852,0l6.042-6.042C130.202,409.754,128.427,418.807,121.975,425.259z M300.501,246.707l-53.547,53.564
			c-6.229,6.212-15.343,7.919-23.612,6.007l5.879-5.879c4.932-4.932,4.932-12.919,0-17.852c-4.932-4.932-12.919-4.932-17.852,0
			l-6.042,6.042c-2.065-8.269-0.299-17.323,6.153-23.774l53.572-53.564c4.727-4.736,11.025-7.339,17.724-7.339
			c2.108,0,4.045,0.691,6.033,1.186l-6.025,6.025c-4.932,4.932-4.932,12.919,0,17.852c4.932,4.932,12.919,4.932,17.852,0
			l6.033-6.025c0.486,1.988,1.178,3.925,1.178,6.033C307.849,235.674,305.246,241.971,300.501,246.707z M479.053,68.173
			l-53.547,53.564c-6.229,6.204-15.352,7.927-23.629,6.008l5.888-5.888c4.932-4.932,4.932-12.919,0-17.852s-12.919-4.932-17.852,0
			l-6.042,6.042c-2.065-8.269-0.29-17.314,6.161-23.765l53.572-53.564c4.727-4.736,11.025-7.347,17.724-7.347
			s12.996,2.611,17.724,7.347c4.745,4.727,7.347,11.025,7.347,17.732C486.4,57.131,483.797,63.437,479.053,68.173z"/>
	</g>
</g>
<g>
</g>
<g>
</g>
<g>
</g>
<g>
</g>
<g>
</g>
<g>
</g>
<g>
</g>
<g>
</g>
<g>
</g>
<g>
</g>
<g>
</g>
<g>
</g>
<g>
</g>
<g>
</g>
<g>
</g>
</svg>
