<svg xmlns="http://www.w3.org/2000/svg" viewBox="0 0 1440 320"><path fill="#1a222c" fill-opacity="0.9" d="M0,96L34.3,106.7C68.6,117,137,139,206,170.7C274.3,203,343,245,411,272C480,299,549,309,617,288C685.7,267,754,213,823,197.3C891.4,181,960,203,1029,202.7C1097.1,203,1166,181,1234,170.7C1302.9,160,1371,160,1406,160L1440,160L1440,0L1405.7,0C1371.4,0,1303,0,1234,0C1165.7,0,1097,0,1029,0C960,0,891,0,823,0C754.3,0,686,0,617,0C548.6,0,480,0,411,0C342.9,0,274,0,206,0C137.1,0,69,0,34,0L0,0Z"></path></svg>