<svg id="wave" style="transform:rotate(0deg); transition: 0.3s" viewBox="0 0 1440 100" version="1.1" xmlns="http://www.w3.org/2000/svg"><defs><linearGradient id="sw-gradient-0" x1="0" x2="0" y1="1" y2="0"><stop stop-color="#1a222c" offset="0%"></stop><stop stop-color="#1a222c" offset="100%"></stop></linearGradient></defs><path style="transform:translate(0, 0px); opacity:1" fill="url(#sw-gradient-0)" d="M0,0L120,13.3C240,27,480,53,720,58.3C960,63,1200,47,1440,36.7C1680,27,1920,23,2160,23.3C2400,23,2640,27,2880,35C3120,43,3360,57,3600,63.3C3840,70,4080,70,4320,71.7C4560,73,4800,77,5040,76.7C5280,77,5520,73,5760,73.3C6000,73,6240,77,6480,80C6720,83,6960,87,7200,85C7440,83,7680,77,7920,70C8160,63,8400,57,8640,46.7C8880,37,9120,23,9360,18.3C9600,13,9840,17,10080,20C10320,23,10560,27,10800,28.3C11040,30,11280,30,11520,35C11760,40,12000,50,12240,55C12480,60,12720,60,12960,60C13200,60,13440,60,13680,63.3C13920,67,14160,73,14400,66.7C14640,60,14880,40,15120,31.7C15360,23,15600,27,15840,30C16080,33,16320,37,16560,33.3C16800,30,17040,20,17160,15L17280,10L17280,100L17160,100C17040,100,16800,100,16560,100C16320,100,16080,100,15840,100C15600,100,15360,100,15120,100C14880,100,14640,100,14400,100C14160,100,13920,100,13680,100C13440,100,13200,100,12960,100C12720,100,12480,100,12240,100C12000,100,11760,100,11520,100C11280,100,11040,100,10800,100C10560,100,10320,100,10080,100C9840,100,9600,100,9360,100C9120,100,8880,100,8640,100C8400,100,8160,100,7920,100C7680,100,7440,100,7200,100C6960,100,6720,100,6480,100C6240,100,6000,100,5760,100C5520,100,5280,100,5040,100C4800,100,4560,100,4320,100C4080,100,3840,100,3600,100C3360,100,3120,100,2880,100C2640,100,2400,100,2160,100C1920,100,1680,100,1440,100C1200,100,960,100,720,100C480,100,240,100,120,100L0,100Z"></path></svg>